<svg xmlns="http://www.w3.org/2000/svg" version="1.1" xmlns:xlink="http://www.w3.org/1999/xlink" xmlns:svgjs="http://svgjs.dev/svgjs" width="1500" height="1687" viewBox="0 0 1500 1687"><g transform="matrix(1,0,0,1,0.00011015625000254659,0)"><svg viewBox="0 0 320 360" data-background-color="#ffffff" preserveAspectRatio="xMidYMid meet" height="1687" width="1500" xmlns="http://www.w3.org/2000/svg" xmlns:xlink="http://www.w3.org/1999/xlink"><g id="tight-bounds" transform="matrix(1,0,0,1,0.000023499999997511622,0)"><svg viewBox="0 0 320 360" height="360" width="320"><g><svg></svg></g><g><svg viewBox="0 0 320 360" height="360" width="320"><g><path transform="translate(-74.99272,-51.79039) scale(4.65793,4.65793)" d="M20.6 59.9l0.8 1-0.4-1.3c-0.1-0.6-0.8 0.1-0.4 0.3M21.5 59.3c0.3 0.5 0.6 1 0.6 1.5 0 0.7 0.6 1 1.1 1.2-0.7-0.8-1.1-3-1.7-2.7M59.9 16.9c1.7 0 3.3-0.2 5.1 0.2 4.4 1.1 8.1 3.3 10.6 6.4l7 11.2c0.3 2.8 0.9 5.9 0.8 9.3 0.7 0 0.6-1 1.4-1.2-0.8 2-1.2 4.5-1.4 7.4-0.5-1.6 0-4 0.1-5.3-0.7 1.1-1.1 0.3-1.1-0.2 0.1-0.8-0.3-0.7-0.6-1-1.1-1-1.8-2.1-2.6-3.8 0.5-1.3 0.6-3.2-1-4.2-0.5-0.3-1.1-0.8-1.4-1.6-0.4-1.1-1.1-2.4-0.9-4.1 0.1-0.5-1.5 1.1-2.4 0.4-3.9-2.7-7.8-5.8-12.5-8.4-2.5 0-4.3-0.9-5.2-2-0.8-1-0.2-2.3 1-2.4 0.7 0 1.5-0.2 2.1 0.2 0.1-0.4 0.5-0.9 1-0.9M50 14.6l0.2 0.1c1 0.2 1.5 1.6 2.6 1.1 0 0.7 0.1 1.4-0.1 1.9-0.3 0.8-1.2 0.8-1.9 0.8-6.7-0.4-10.6 2.4-14.7 4.8-1.1 0.7-2.3 1.2-3.2 2.1-4.3 4-9 7.7-10.1 15.1l-0.9 8.2c-0.1 0.9-1.1 1.8-0.9 2.9l0.7 4.9c-0.7-0.7-1.1 0.2-0.9 0.6 0.1 0.3 0.5 1.3 1.1 0.4 0.8 1.5 1.6 4.4 2.7 5.7 3.4 4 7.8 7.6 11.4 11.2 0.9-0.2 1.6-0.2 1.8-0.8 0.3 0.6-0.3 1.2-0.8 1.3 1.6 1 3.4 1.9 5.8 2.1 3.1 0.2 6 0.7 8.7 1.4 1.4-0.4 2.8-0.6 4.3-0.7 0.5 0 0.8-0.8 1.4-1l0.1-1c0.6 0.9 0.5-0.3 0.1-0.9 0.7 0.6 0.9 1.1 1.2 1.5 0-0.3 0.8-1.4 0.8-0.1l0.2-1.3c0.3-0.2 0.4 1.1 0.7 0.2 0.3-0.9 0.9-0.2 1.5-0.5-0.2 0.4-0.1 1.2 0.6 0.7l0.8-0.7c0.5 1.2 1.3 0.7 1.7 0.5 4.4-2.8 8.8-6.1 13-9.4l-0.1 1.3 0.5-1.6c0.5 0.5 0.9 0.1 1.1-0.2 0.6-1 1.4-2 2.7-2.9-1.6 4.3-3.5 7.7-5.9 10.5l-1 1.2c0 0.7-0.2 1.6-1 1.7-0.4 0.1-1.2-0.2-1.8 0.4-0.3 0.4 0.7 1.2-0.1 0.6-0.7-0.5-1.4 0-2.2 0.2-0.6 0.2 0.4 0.8 0.6 1.2 0.2 0.4 0.4 0.8 0.3 1.3l-1.1-1.2c-1.3 0.7-2.1 2-3.2 3-0.5 0.4-0.3 1.1-0.3 1.7-0.7 0-1.5-0.2-1.9 0.2-0.3 0.4-0.2 1-0.2 1.6-1-0.1-1.1-1.6-2-1.3-0.9 0.2-1.9 0.3-2.7 0.8 0.6 1.2-1 0.5-0.8 0.7-1.5-0.9-2.8-1.6-4.4-1-3.4-1.1-7.6-0.6-10.7-0.2 0-0.5 0.1-1-0.1-1.1-0.2 0.5-0.8 0.3-0.7 0.3-1.9-1.3-3.8-2.1-5.8-3.2-1.8 0.2-3.5-0.7-4-1.2-1.4-1.3-3-0.6-4.3-0.9-2.8-0.7-3.8-3.6-4.1-5.6-0.2-1-1-1.4-1.3-1.3-1.3-4.2-3.3-8-4.9-11.9-0.4-1-0.3-2-0.3-3.1 0.5 0.2 1 0.1 0.9-0.6-0.5-3.3-1.7-5.8-3-8.2 0.7-3.4 0.8-7.4 2.4-10.4 1.4-2.7 4-4.1 5.8-6.4 0.6-0.8 0.6-1.9 1.2-2.6 2-2 4-4.1 6.2-5.9 1-0.8 2.2 0 3.7-0.3 0.5-1.8 2.5-3.4 4.4-2.9 0.8 0.2 2.4-1.9 2.9-2.1 0.8-0.3 0.4 0.8 0.4 1.5 1.9-1.5 4.5-2.3 6.9-3.2" fill="#6230a3" fill-rule="nonzero" stroke="none" stroke-width="1" stroke-linecap="butt" stroke-linejoin="miter" stroke-miterlimit="10" stroke-dasharray="" stroke-dashoffset="0" font-family="none" font-weight="none" font-size="none" text-anchor="none" style="mix-blend-mode: normal" data-fill-palette-color="tertiary"></path></g><g transform="matrix(1,0,0,1,64,128.98489246753246)"><svg viewBox="0 0 192 102.03021506493506" height="102.03021506493506" width="192"><g><svg viewBox="0 0 192 102.03021506493506" height="102.03021506493506" width="192"><g><svg viewBox="0 0 192 102.03021506493506" height="102.03021506493506" width="192"><g transform="matrix(1,0,0,1,0,60.41136308336825)"><svg viewBox="0 0 192 41.61885198156681" height="41.61885198156681" width="192"><g id="textblocktransform"><svg viewBox="0 0 192 41.61885198156681" height="41.61885198156681" width="192" id="textblock"><g><svg viewBox="0 0 192 23.594470046082947" height="23.594470046082947" width="192"><g transform="matrix(1,0,0,1,0,0)"><svg width="192" viewBox="0.4 -38 390.56 48" height="23.594470046082947" data-palette-color="#6230a3"><path d="M9.5 0L3-23.5 0.4-23.5 0.4-25.8 10.75-25.8 10.75-23.5 7.15-23.5 12.3-4 12.5-4 18.75-25.8 22.2-25.8 27.95-4 28.15-4 33.4-23.5 29.8-23.5 29.8-25.8 38.45-25.8 38.45-23.5 35.85-23.5 29.3 0 25.3 0 19.75-20.25 19.55-20.25 13.5 0 9.5 0ZM52.6-1.85L52.6-1.85Q54.45-1.85 55.82-2.48 57.2-3.1 58.07-4.23 58.95-5.35 59.37-6.88 59.8-8.4 59.8-10.2L59.8-10.2 59.8-15.6Q59.8-17.4 59.37-18.93 58.95-20.45 58.07-21.58 57.2-22.7 55.82-23.33 54.45-23.95 52.6-23.95L52.6-23.95Q50.7-23.95 49.35-23.33 48-22.7 47.12-21.58 46.25-20.45 45.82-18.93 45.4-17.4 45.4-15.6L45.4-15.6 45.4-10.2Q45.4-8.4 45.82-6.88 46.25-5.35 47.12-4.23 48-3.1 49.35-2.48 50.7-1.85 52.6-1.85ZM52.6 0.6L52.6 0.6Q49.95 0.6 47.75-0.35 45.55-1.3 44-3.08 42.45-4.85 41.6-7.33 40.75-9.8 40.75-12.9L40.75-12.9Q40.75-15.95 41.6-18.45 42.45-20.95 44-22.73 45.55-24.5 47.75-25.45 49.95-26.4 52.6-26.4L52.6-26.4Q55.25-26.4 57.45-25.45 59.65-24.5 61.2-22.73 62.75-20.95 63.6-18.45 64.45-15.95 64.45-12.9L64.45-12.9Q64.45-9.8 63.6-7.33 62.75-4.85 61.2-3.08 59.65-1.3 57.45-0.35 55.25 0.6 52.6 0.6ZM69.2 0L69.2-2.3 72.9-2.3 72.9-22.55 69.2-23.2 69.2-24.9 76.9-26.4 76.9-21.9 77.15-21.9Q77.5-22.7 78.02-23.5 78.55-24.3 79.32-24.95 80.1-25.6 81.12-26 82.15-26.4 83.5-26.4L83.5-26.4Q85.7-26.4 87.02-25.35 88.35-24.3 88.35-22.3L88.35-22.3Q88.35-20.8 87.6-19.95 86.85-19.1 85.65-19.1L85.65-19.1Q84.3-19.1 83.5-19.83 82.7-20.55 82.7-21.7L82.7-21.7Q82.7-22.7 83.12-23.33 83.55-23.95 84.1-24.05L84.1-24.05 84.1-24.15Q83.9-24.2 83.6-24.23 83.3-24.25 82.85-24.25L82.85-24.25Q81.8-24.25 80.75-23.73 79.7-23.2 78.87-22.38 78.05-21.55 77.52-20.5 77-19.45 77-18.4L77-18.4 77-2.3 81.7-2.3 81.7 0 69.2 0ZM90.59 0L90.59-2.3 94.29-2.3 94.29-34.15 90.59-34.8 90.59-36.55 98.39-38 98.39-11.85 98.64-11.85 102.84-16.55 109.14-23.5 105.74-23.5 105.74-25.8 116.44-25.8 116.44-23.5 112.79-23.5 105.54-15.95 114.59-2.3 117.44-2.3 117.44 0 106.79 0 106.79-2.3 109.99-2.3 102.74-13.2 98.39-8.65 98.39-2.3 102.09-2.3 102.09 0 90.59 0ZM131.39-1.85L131.39-1.85Q133.24-1.85 134.62-2.48 135.99-3.1 136.87-4.23 137.74-5.35 138.17-6.88 138.59-8.4 138.59-10.2L138.59-10.2 138.59-15.6Q138.59-17.4 138.17-18.93 137.74-20.45 136.87-21.58 135.99-22.7 134.62-23.33 133.24-23.95 131.39-23.95L131.39-23.95Q129.49-23.95 128.14-23.33 126.79-22.7 125.92-21.58 125.04-20.45 124.62-18.93 124.19-17.4 124.19-15.6L124.19-15.6 124.19-10.2Q124.19-8.4 124.62-6.88 125.04-5.35 125.92-4.23 126.79-3.1 128.14-2.48 129.49-1.85 131.39-1.85ZM131.39 0.6L131.39 0.6Q128.74 0.6 126.54-0.35 124.34-1.3 122.79-3.08 121.24-4.85 120.39-7.33 119.54-9.8 119.54-12.9L119.54-12.9Q119.54-15.95 120.39-18.45 121.24-20.95 122.79-22.73 124.34-24.5 126.54-25.45 128.74-26.4 131.39-26.4L131.39-26.4Q134.04-26.4 136.24-25.45 138.44-24.5 139.99-22.73 141.54-20.95 142.39-18.45 143.24-15.95 143.24-12.9L143.24-12.9Q143.24-9.8 142.39-7.33 141.54-4.85 139.99-3.08 138.44-1.3 136.24-0.35 134.04 0.6 131.39 0.6ZM159.39 0.6L159.39 0.6Q154.74 0.6 152.71-1.83 150.69-4.25 150.69-9.15L150.69-9.15 150.69-22.55 146.99-23.2 146.99-24.9 154.79-26.4 154.79-9.5Q154.79-2.25 160.84-2.25L160.84-2.25Q161.94-2.25 163.01-2.55 164.09-2.85 164.96-3.5 165.84-4.15 166.36-5.1 166.89-6.05 166.89-7.35L166.89-7.35 166.89-22.55 163.19-23.2 163.19-24.9 170.99-26.4 170.99-3.25 174.69-2.6 174.69-0.9 166.99 0.6 166.99-3.9 166.79-3.9Q166.49-3.15 165.86-2.35 165.24-1.55 164.31-0.9 163.39-0.25 162.14 0.18 160.89 0.6 159.39 0.6ZM186.53 0.3L186.53 0.3Q183.88 0.3 182.88-0.78 181.88-1.85 181.88-4.45L181.88-4.45 181.88-23.35 178.59-23.35 178.59-25.8 179.03-25.8Q180.09-25.8 180.71-25.95 181.34-26.1 181.71-26.38 182.09-26.65 182.26-27.08 182.44-27.5 182.59-28.05L182.59-28.05 183.74-32.5 185.99-32.5 185.99-25.8 192.63-25.8 192.63-23.35 185.99-23.35 185.99-2.45 192.63-2.45 192.63-0.8Q192.19-0.55 191.51-0.35 190.84-0.15 190.01 0 189.19 0.15 188.28 0.23 187.38 0.3 186.53 0.3ZM207.68 10L207.68 7.7 211.38 7.7 211.38-22.55 207.68-23.2 207.68-24.9 215.48-26.4 215.48-21.9 215.68-21.9Q216.53-23.75 218.38-25.08 220.23-26.4 223.28-26.4L223.28-26.4Q228.08-26.4 230.96-22.93 233.83-19.45 233.83-12.9L233.83-12.9Q233.83-6.35 230.96-2.88 228.08 0.6 223.28 0.6L223.28 0.6Q220.28 0.6 218.41-0.7 216.53-2 215.68-3.85L215.68-3.85 215.48-3.85 215.48 7.7 220.18 7.7 220.18 10 207.68 10ZM222.08-2.25L222.08-2.25Q225.53-2.25 227.46-4.58 229.38-6.9 229.38-10.8L229.38-10.8 229.38-15Q229.38-18.9 227.46-21.23 225.53-23.55 222.08-23.55L222.08-23.55Q220.88-23.55 219.68-23.2 218.48-22.85 217.56-22.2 216.63-21.55 216.06-20.58 215.48-19.6 215.48-18.4L215.48-18.4 215.48-7.4Q215.48-6.2 216.06-5.23 216.63-4.25 217.56-3.6 218.48-2.95 219.68-2.6 220.88-2.25 222.08-2.25ZM238.08 0L238.08-2.3 241.78-2.3 241.78-34.15 238.08-34.8 238.08-36.55 245.88-38 245.88-2.3 249.58-2.3 249.58 0 238.08 0ZM261.48 0.6L261.48 0.6Q257.88 0.6 255.85-1.28 253.83-3.15 253.83-6.4L253.83-6.4Q253.83-8.25 254.43-9.68 255.03-11.1 256.4-12.05 257.78-13 259.98-13.5 262.18-14 265.33-14L265.33-14 269.03-14 269.03-17.8Q269.03-20.85 267.55-22.48 266.08-24.1 263.13-24.1L263.13-24.1Q261.83-24.1 260.73-23.88 259.63-23.65 258.93-23.25L258.93-23.25 258.93-23.15Q259.48-22.85 260-22.25 260.53-21.65 260.53-20.55L260.53-20.55Q260.53-19.25 259.78-18.53 259.03-17.8 257.78-17.8L257.78-17.8Q256.58-17.8 255.8-18.53 255.03-19.25 255.03-20.7L255.03-20.7Q255.03-21.8 255.68-22.83 256.33-23.85 257.53-24.65 258.73-25.45 260.5-25.93 262.28-26.4 264.53-26.4L264.53-26.4Q268.58-26.4 270.85-24.3 273.13-22.2 273.13-18.4L273.13-18.4 273.13-2.15 276.88-2.15 276.88-0.4Q276.33 0 275.4 0.3 274.48 0.6 273.33 0.6L273.33 0.6Q271.38 0.6 270.33-0.5 269.28-1.6 269.28-3.45L269.28-3.45 269.28-3.8 269.03-3.8Q268.68-2.95 268.1-2.15 267.53-1.35 266.63-0.75 265.73-0.15 264.45 0.23 263.18 0.6 261.48 0.6ZM263.23-2.15L263.23-2.15Q265.63-2.15 267.33-3.38 269.03-4.6 269.03-7.15L269.03-7.15 269.03-12 265.78-12Q263.63-12 262.18-11.68 260.73-11.35 259.88-10.73 259.03-10.1 258.65-9.2 258.28-8.3 258.28-7.1L258.28-7.1 258.28-6.05Q258.28-4.15 259.58-3.15 260.88-2.15 263.23-2.15ZM281.12 0L281.12-2.3 284.82-2.3 284.82-22.55 281.12-23.2 281.12-24.9 288.82-26.4 288.82-21.9 289.02-21.9Q289.32-22.65 289.95-23.45 290.57-24.25 291.5-24.9 292.42-25.55 293.67-25.98 294.92-26.4 296.42-26.4L296.42-26.4Q301.07-26.4 303.1-23.98 305.12-21.55 305.12-16.7L305.12-16.7 305.12-2.3 308.82-2.3 308.82 0 297.32 0 297.32-2.3 301.02-2.3 301.02-16.35Q301.02-23.55 294.97-23.55L294.97-23.55Q293.87-23.55 292.8-23.25 291.72-22.95 290.85-22.3 289.97-21.65 289.45-20.7 288.92-19.75 288.92-18.45L288.92-18.45 288.92-2.3 292.62-2.3 292.62 0 281.12 0ZM313.07 0L313.07-2.3 316.77-2.3 316.77-22.55 313.07-23.2 313.07-24.9 320.77-26.4 320.77-21.9 320.97-21.9Q321.27-22.65 321.89-23.45 322.52-24.25 323.44-24.9 324.37-25.55 325.62-25.98 326.87-26.4 328.37-26.4L328.37-26.4Q333.02-26.4 335.05-23.98 337.07-21.55 337.07-16.7L337.07-16.7 337.07-2.3 340.77-2.3 340.77 0 329.27 0 329.27-2.3 332.97-2.3 332.97-16.35Q332.97-23.55 326.92-23.55L326.92-23.55Q325.82-23.55 324.75-23.25 323.67-22.95 322.8-22.3 321.92-21.65 321.39-20.7 320.87-19.75 320.87-18.45L320.87-18.45 320.87-2.3 324.57-2.3 324.57 0 313.07 0ZM356.47 0.6L356.47 0.6Q353.72 0.6 351.54-0.38 349.37-1.35 347.87-3.1 346.37-4.85 345.57-7.35 344.77-9.85 344.77-12.9L344.77-12.9Q344.77-15.9 345.64-18.38 346.52-20.85 348.04-22.65 349.57-24.45 351.67-25.43 353.77-26.4 356.27-26.4L356.27-26.4Q358.82-26.4 360.82-25.5 362.82-24.6 364.19-22.98 365.57-21.35 366.32-19.1 367.07-16.85 367.07-14.2L367.07-14.2 367.07-13.05 349.32-13.05 349.32-11.75Q349.32-7.5 351.44-5.05 353.57-2.6 357.12-2.6L357.12-2.6Q360.22-2.6 362.04-3.88 363.87-5.15 364.92-7.2L364.92-7.2 366.57-6.15Q366.07-4.85 365.19-3.63 364.32-2.4 363.07-1.48 361.82-0.55 360.17 0.03 358.52 0.6 356.47 0.6ZM349.32-15.95L349.32-15.35 362.77-15.35 362.77-15.85Q362.77-17.6 362.39-19.1 362.02-20.6 361.22-21.7 360.42-22.8 359.19-23.43 357.97-24.05 356.27-24.05L356.27-24.05Q354.57-24.05 353.27-23.45 351.97-22.85 351.09-21.75 350.22-20.65 349.77-19.18 349.32-17.7 349.32-15.95L349.32-15.95ZM371.81 0L371.81-2.3 375.51-2.3 375.51-22.55 371.81-23.2 371.81-24.9 379.51-26.4 379.51-21.9 379.76-21.9Q380.12-22.7 380.64-23.5 381.17-24.3 381.94-24.95 382.71-25.6 383.74-26 384.76-26.4 386.12-26.4L386.12-26.4Q388.31-26.4 389.64-25.35 390.96-24.3 390.96-22.3L390.96-22.3Q390.96-20.8 390.21-19.95 389.46-19.1 388.26-19.1L388.26-19.1Q386.92-19.1 386.12-19.83 385.31-20.55 385.31-21.7L385.31-21.7Q385.31-22.7 385.74-23.33 386.17-23.95 386.71-24.05L386.71-24.05 386.71-24.15Q386.51-24.2 386.21-24.23 385.92-24.25 385.46-24.25L385.46-24.25Q384.42-24.25 383.37-23.73 382.31-23.2 381.49-22.38 380.67-21.55 380.14-20.5 379.62-19.45 379.62-18.4L379.62-18.4 379.62-2.3 384.31-2.3 384.31 0 371.81 0Z" opacity="1" transform="matrix(1,0,0,1,0,0)" fill="#6230a3" class="wordmark-text-0" data-fill-palette-color="primary" id="text-0"></path></svg></g></svg></g><g transform="matrix(1,0,0,1,0,27.037469493087556)"><svg viewBox="0 0 192 14.58138248847926" height="14.58138248847926" width="192"><g transform="matrix(1,0,0,1,0,0)"><svg width="192" viewBox="2 -37.5 496.41 37.7" height="14.58138248847926" data-palette-color="#8d66c0"><path d="M5.45-22.5L2-22.5 2-25 12.5-25 12.5-22.5 9.15-22.5 14.7-4.05 21.25-24.75 24.45-25 29.95-4.05 36.4-22.5 33-22.5 33-25 43-25 43-22.5 40.1-22.5 31.55 0 28.55 0 22.7-19.85 15.95 0 12.95 0 5.45-22.5ZM83.6 0L73.5 0 73.5-2.5 76.55-2.5 76.55-17.1Q76.55-18.85 75.83-19.95 75.1-21.05 73.95-21.4L73.95-21.4Q72.05-22.05 70.85-21.95L70.85-21.95Q67.6-21.85 63.7-19.65L63.7-19.65 63.7-2.5 67.5-2.5 67.5 0 57.4 0 57.4-2.5 60.45-2.5 60.45-35 57.1-35 57.1-37.5 63.7-37.5 63.7-21.9Q70.25-26.4 75.55-24.7L75.55-24.7Q76.75-24.35 77.63-23.68 78.5-23 79.15-21.65 79.8-20.3 79.8-18.4L79.8-18.4 79.8-2.5 83.6-2.5 83.6 0ZM104.75 0.2L104.75 0.2Q98.1 0.2 97.7-5.05L97.7-5.05Q97.65-5.4 97.65-5.75L97.65-5.75Q97.65-9.95 102.7-11.35L102.7-11.35Q105.5-12.05 113.5-12.95L113.5-12.95 113.5-16.8Q113.5-22.25 107.8-22.25L107.8-22.25Q103.7-22.2 99.1-20.35L99.1-20.35 98.25-22.5 98.75-22.7Q102.65-24.4 104.7-24.75 106.75-25.1 107.7-25.13 108.65-25.15 109.53-25.1 110.4-25.05 111.8-24.65 113.2-24.25 114.23-23.53 115.25-22.8 116-21.35 116.75-19.9 116.75-17.9L116.75-17.9 116.75-2.5 120.6-2.5 120.6 0 114 0 113.5-1.9Q109 0.2 104.75 0.2ZM105.65-2.1L105.65-2.1Q109.45-2.1 113.5-3.8L113.5-3.8 113.5-10.95Q106-10.7 103.8-9.95L103.8-9.95Q102.1-9.5 101.4-8.33 100.7-7.15 100.7-6.45 100.7-5.75 100.7-5.5L100.7-5.5Q100.85-3.7 102.25-2.9 103.65-2.1 105.65-2.1ZM144.1-2.45L144.1-2.45 146.05-2.55 146.2-0.55Q146.15-0.55 145.5-0.4L145.5-0.4Q144-0.05 142.15-0.05L142.15-0.05Q140.45-0.15 139.05-0.63 137.65-1.1 136.45-2.63 135.25-4.15 135.25-6.55L135.25-6.55 135.25-22.1 132.7-22.1 133.1-24.5 135.3-24.95 135.7-29.75 138.5-30 138.5-25 144.55-25 144.55-22.1 138.5-22.1 138.5-7.4Q138.5-2.45 144.1-2.45ZM192.8-22.5L189.35-22.5 189.35-25 199.85-25 199.85-22.5 196.5-22.5 202.05-4.05 208.6-24.75 211.8-25 217.3-4.05 223.75-22.5 220.35-22.5 220.35-25 230.35-25 230.35-22.5 227.45-22.5 218.9 0 215.9 0 210.05-19.85 203.3 0 200.3 0 192.8-22.5ZM246.66-11.2L246.66-11.2Q246.66-6.75 249.21-4.73 251.76-2.7 255.16-2.7L255.16-2.7Q257.36-2.7 259.68-3.13 262.01-3.55 262.76-3.9L262.76-3.9 263.41-1.55Q262.26-0.8 259.63-0.3 257.01 0.2 254.83 0.2 252.66 0.2 250.93-0.25 249.21-0.7 247.41-1.85 245.61-3 244.56-5.45 243.51-7.9 243.51-11.45L243.51-11.45Q243.51-18.05 246.91-21.55L246.91-21.55Q250.46-25.2 255.16-25.2 259.86-25.2 262.33-22.6 264.81-20 264.81-15.3L264.81-15.3Q264.81-14.3 264.66-13.15L264.66-13.15 246.81-13.15Q246.66-12.1 246.66-11.2ZM261.81-15.65L261.81-15.65Q261.81-18.75 259.96-20.43 258.11-22.1 255.66-22.1L255.66-22.1Q252.31-22.1 250.11-20.08 247.91-18.05 247.16-15.1L247.16-15.1 261.81-15.1Q261.81-15.4 261.81-15.65ZM335.16 0L325.06 0 325.06-2.5 328.11-2.5 328.11-17.1Q328.11-18.85 327.38-19.95 326.66-21.05 325.51-21.4L325.51-21.4Q323.61-22.05 322.41-21.95L322.41-21.95Q319.16-21.85 315.26-19.65L315.26-19.65 315.26-2.5 319.06-2.5 319.06 0 308.96 0 308.96-2.5 312.01-2.5 312.01-35 308.66-35 308.66-37.5 315.26-37.5 315.26-21.9Q321.81-26.4 327.11-24.7L327.11-24.7Q328.31-24.35 329.18-23.68 330.06-23 330.71-21.65 331.36-20.3 331.36-18.4L331.36-18.4 331.36-2.5 335.16-2.5 335.16 0ZM353.01-22.5L349.66-22.5 349.66-25 356.26-25 356.26-2.5 360.01-2.5 360.01 0 349.91 0 349.91-2.5 353.01-2.5 353.01-22.5ZM354.56-31.7Q353.56-31.7 353.01-32.33 352.46-32.95 352.46-33.98 352.46-35 353.03-35.63 353.61-36.25 354.61-36.25 355.61-36.25 356.23-35.63 356.86-35 356.86-33.93 356.86-32.85 356.21-32.27 355.56-31.7 354.56-31.7ZM385.01-2.45L385.01-2.45 386.96-2.55 387.11-0.55Q387.06-0.55 386.41-0.4L386.41-0.4Q384.91-0.05 383.06-0.05L383.06-0.05Q381.36-0.15 379.96-0.63 378.56-1.1 377.36-2.63 376.16-4.15 376.16-6.55L376.16-6.55 376.16-22.1 373.61-22.1 374.01-24.5 376.21-24.95 376.61-29.75 379.41-30 379.41-25 385.46-25 385.46-22.1 379.41-22.1 379.41-7.4Q379.41-2.45 385.01-2.45ZM413.11-2.45L413.11-2.45 415.06-2.55 415.21-0.55Q415.16-0.55 414.51-0.4L414.51-0.4Q413.01-0.05 411.16-0.05L411.16-0.05Q409.46-0.15 408.06-0.63 406.66-1.1 405.46-2.63 404.26-4.15 404.26-6.55L404.26-6.55 404.26-22.1 401.71-22.1 402.11-24.5 404.31-24.95 404.71-29.75 407.51-30 407.51-25 413.56-25 413.56-22.1 407.51-22.1 407.51-7.4Q407.51-2.45 413.11-2.45ZM433.11-22.5L429.76-22.5 429.76-25 436.36-25 436.36-2.5 440.11-2.5 440.11 0 430.01 0 430.01-2.5 433.11-2.5 433.11-22.5ZM434.66-31.7Q433.66-31.7 433.11-32.33 432.56-32.95 432.56-33.98 432.56-35 433.14-35.63 433.71-36.25 434.71-36.25 435.71-36.25 436.34-35.63 436.96-35 436.96-33.93 436.96-32.85 436.31-32.27 435.66-31.7 434.66-31.7ZM457.46-22.5L454.11-22.5 454.11-25 460.71-25 460.71-22.2Q464.81-25 468.56-25.15L468.56-25.15Q472.21-25.15 474.11-23.7L474.11-23.7Q474.96-23.05 475.64-21.68 476.31-20.3 476.31-18.4L476.31-18.4 476.31-2.5 480.16-2.5 480.16 0 470.06 0 470.06-2.5 473.06-2.5 473.06-17.15Q473.06-22 467.36-22L467.36-22Q464.26-21.9 460.71-19.95L460.71-19.95 460.71-2.5 464.46-2.5 464.46 0 454.36 0 454.36-2.5 457.46-2.5 457.46-22.5ZM495.71-28.65L495.71-29.35 495.76-33.05Q495.76-35.1 495.71-35.75L495.71-35.75 498.41-35.9Q498.41-34.95 498.36-33.85 498.31-32.75 498.29-31.9 498.26-31.05 498.21-30.33 498.16-29.6 498.11-28.75L498.11-28.75 495.71-28.65Z" opacity="1" transform="matrix(1,0,0,1,0,0)" fill="#8d66c0" class="slogan-text-1" data-fill-palette-color="secondary" id="text-1"></path></svg></g></svg></g></svg></g></svg></g><g transform="matrix(1,0,0,1,36.672,0)"><svg viewBox="0 0 118.656 56.96836363636364" height="56.96836363636364" width="118.656"><g><svg xmlns="http://www.w3.org/2000/svg" data-name="Layer 1" viewBox="6 28.88 88 42.25" x="0" y="0" height="56.96836363636364" width="118.656" class="icon-icon-0" data-fill-palette-color="accent" id="icon-0"><path d="M84 71.13v-6H94V34.88H84v-6H69.5V42.25h-39V28.88H16v6H6V65.13H16v6H30.5V57.75h39V71.13Zm8-34.25V63.13H84V36.88Zm-20.5-6H82V69.13H71.5ZM8 63.13V36.88h8V63.13Zm20.5 6H18V30.88H28.5Zm2-13.37V44.25h39v11.5Z" fill="#ff9843" data-fill-palette-color="accent"></path></svg></g></svg></g><g></g></svg></g></svg></g></svg></g></svg></g><defs></defs></svg><rect width="320" height="360" fill="none" stroke="none" visibility="hidden"></rect></g></svg></g></svg>